<svg width="22" height="22" viewBox="0 0 22 22" fill="none" xmlns="http://www.w3.org/2000/svg">
<path d="M11.0625 0.5C11.8674 0.5 12.7635 0.879444 13.6855 1.46582C14.3711 1.90185 15.0351 2.42817 15.6465 2.9375L16.2393 3.4375C16.5035 3.66128 16.7588 3.87775 16.9932 4.06836C17.2458 4.30329 17.4783 4.51515 17.6943 4.70898L18.3066 5.25391C19.5615 6.36547 20.207 6.98788 20.584 7.92383C20.9702 8.88253 21.0918 10.2162 21.0918 12.7949C21.0918 17.4133 20.4105 19.4517 19 20.4395C18.2804 20.9434 17.3128 21.219 15.9932 21.3594C14.6728 21.4998 13.0645 21.5 11.0918 21.5C9.11894 21.5 7.5108 21.4998 6.19043 21.3594C4.87061 21.219 3.90223 20.9434 3.18262 20.4395C1.77253 19.4517 1.09183 17.4129 1.0918 12.7949C1.0918 10.2167 1.21354 8.88325 1.59961 7.9248C1.92943 7.10607 2.46464 6.52764 3.43359 5.65137L3.87598 5.25586C4.06504 5.08808 4.2682 4.90806 4.48535 4.71289L5.17969 4.07812L5.99902 3.3877C6.78636 2.71347 7.63832 1.98508 8.52051 1.42285C9.40771 0.857452 10.2659 0.50005 11.0625 0.5ZM8.06543 14.0459C7.35535 14.0459 6.78516 14.6252 6.78516 15.332C6.78522 16.0388 7.35539 16.6172 8.06543 16.6172H14.1191C14.8292 16.6172 15.4003 16.0389 15.4004 15.332C15.4004 14.6251 14.8292 14.0459 14.1191 14.0459H8.06543Z" stroke="#333333"/>
</svg>
