<svg width="26" height="22" viewBox="0 0 26 22" fill="none" xmlns="http://www.w3.org/2000/svg">
<path d="M19.5503 21.9703V7.04164C19.6316 7.03548 19.7043 7.02563 19.7757 7.02563C21.0913 7.02563 22.4082 7.0207 23.7238 7.02563C24.5725 7.02932 25.165 7.46663 25.3522 8.22297C25.3954 8.39913 25.4052 8.58636 25.4052 8.76868C25.4101 9.71965 25.4077 10.6719 25.4077 11.6228C25.4077 12.1661 25.2463 12.3435 24.7142 12.394C23.7077 12.4876 22.8935 13.2723 22.7876 14.2516C22.6755 15.2826 23.2803 16.2324 24.2596 16.5379C24.4555 16.5995 24.6661 16.613 24.8718 16.645C25.2303 16.7005 25.4015 16.8655 25.404 17.2191C25.4114 18.2957 25.4262 19.3736 25.3966 20.449C25.372 21.3445 24.7696 21.9629 23.8777 21.9826C22.4624 22.0146 21.047 21.9937 19.6304 21.9937C19.6082 21.9937 19.5848 21.9801 19.5515 21.969L19.5503 21.9703Z" fill="#F2AF83"/>
<path d="M6.73389 5.85254C7.19952 5.6887 7.66516 5.52364 8.13202 5.36227C12.6159 3.81262 17.101 2.26296 21.5849 0.713314C22.5864 0.367167 23.4376 0.779833 23.7887 1.78008C24.1163 2.71505 24.4452 3.64878 24.7741 4.58374C24.938 5.05184 24.8234 5.29821 24.3602 5.48915C24.2297 5.54335 24.088 5.59139 23.9845 5.68008C23.7369 5.89196 23.4573 5.9129 23.1493 5.91166C17.7761 5.9055 12.4028 5.90797 7.0283 5.90797C6.93344 5.90797 6.83736 5.90797 6.74251 5.90797C6.74005 5.88949 6.73635 5.87102 6.73389 5.85377V5.85254Z" fill="#F2AF83"/>
<path d="M18.4672 21.998L18.4643 22.001V21.998H18.4672ZM18.4643 7.04101V21.998H2.58439C1.7161 21.9979 1.11735 21.5681 0.925208 20.8057C0.879659 20.6222 0.870776 20.4262 0.869544 20.2354C0.864618 19.3005 0.86759 18.3657 0.867591 17.4297C0.867591 16.7831 0.959852 16.6826 1.6088 16.6309C2.55963 16.5545 3.32486 15.8774 3.52579 14.9365C3.72042 14.025 3.26567 13.0428 2.41447 12.6289C2.13861 12.4947 1.81607 12.4342 1.50822 12.3936C1.00447 12.327 0.868861 12.2063 0.867591 11.6953C0.865127 10.7098 0.862664 9.72375 0.867591 8.73828C0.873908 7.66683 1.50964 7.02637 2.58243 7.02637C7.79784 7.02267 13.0145 7.02513 18.2299 7.02637C18.3026 7.02637 18.3768 7.03486 18.4643 7.04101Z" fill="#F2AF83"/>
</svg>
