<svg width="22" height="23" viewBox="0 0 22 23" fill="none" xmlns="http://www.w3.org/2000/svg">
<path d="M11.8096 0.645747C12.2324 0.718691 12.659 0.773399 13.0767 0.86701C16.1338 1.55147 18.6035 4.08627 19.0946 7.05265C19.1769 7.55232 19.1984 8.06171 19.2263 8.56746C19.2465 8.94555 19.2301 9.32486 19.2301 9.71268C19.3896 9.73578 19.539 9.74429 19.6807 9.78076C20.4669 9.98135 20.9314 10.5163 21.2479 11.1971C21.4276 11.5813 21.4985 11.9885 21.4985 12.408C21.4998 13.4669 21.5011 14.527 21.4985 15.5859C21.4947 16.7165 20.82 17.4326 19.6466 17.5712C19.5618 17.5809 19.4605 17.6526 19.4111 17.7243C19.0098 18.314 18.5706 18.8696 17.987 19.3097C16.9946 20.0586 15.8692 20.4525 14.6071 20.4877C14.5641 20.4889 14.5198 20.4938 14.4654 20.4987C14.3223 21.2402 13.9122 21.8043 13.2577 22.2031C12.6843 22.552 12.0539 22.7125 11.3817 22.6177C9.94113 22.4146 8.90058 21.2804 8.90311 19.9491C8.90564 18.5985 9.94239 17.4642 11.3792 17.2867C12.6969 17.1238 14.0856 17.9006 14.4654 19.3972C15.6287 19.503 17.3098 18.7954 18.0794 17.6368C17.8908 17.6368 17.725 17.6405 17.5579 17.6368C17.1579 17.6283 16.9515 17.4289 16.9515 17.0508C16.9515 14.8467 16.949 12.6414 16.9553 10.4373C16.9553 10.2926 16.9946 10.1382 17.0553 10.0045C17.1338 9.82939 17.2882 9.73213 17.4996 9.73456C17.6845 9.73699 17.8693 9.73456 18.0503 9.73456C18.5351 5.49287 15.973 2.53986 12.4589 1.86269C8.74994 1.14663 5.12575 3.48083 4.34471 7.04901C4.20673 7.67754 4.1447 8.95041 4.21812 9.73456C4.38142 9.73456 4.54978 9.73334 4.71814 9.73456C5.06752 9.73821 5.27259 9.90841 5.31943 10.2415C5.33462 10.3546 5.33589 10.4701 5.33589 10.5844C5.33589 12.724 5.33589 14.8649 5.33589 17.0046C5.33589 17.4435 5.14347 17.6356 4.68523 17.6344C3.9928 17.6344 3.29657 17.6636 2.60667 17.6137C1.41675 17.5286 0.567347 16.7238 0.52684 15.5859C0.481268 14.3142 0.49899 13.0377 0.540764 11.766C0.571145 10.819 1.42941 9.71025 2.80161 9.73334C2.87503 9.73456 2.94845 9.73334 3.05858 9.73334C3.05858 9.62393 3.05858 9.53518 3.05858 9.44522C3.06111 8.5942 3.0282 7.74076 3.21808 6.9019C3.82823 4.23216 5.43969 2.34777 8.03726 1.24389C8.7702 0.93266 9.54238 0.755163 10.3411 0.683435C10.3994 0.678572 10.4563 0.657904 10.5133 0.644531C10.9462 0.644531 11.3779 0.644531 11.8108 0.644531L11.8096 0.645747ZM4.2004 10.8239C3.76367 10.8239 3.34847 10.8239 2.93326 10.8239C2.14336 10.8239 1.65979 11.2858 1.65853 12.053C1.656 13.1836 1.656 14.3142 1.65853 15.4449C1.65853 16.0722 2.1307 16.5305 2.78009 16.5378C3.19783 16.5427 3.6143 16.539 4.03204 16.5378C4.08774 16.5378 4.14343 16.5269 4.20166 16.5196V10.8239H4.2004ZM18.1098 16.5196C18.5845 16.5196 19.0491 16.5597 19.5023 16.5098C20.1415 16.4393 20.3542 16.1634 20.3542 15.5458C20.3542 14.4735 20.3542 13.4012 20.3542 12.3289C20.3542 11.9314 20.2276 11.5703 19.9909 11.2457C19.8364 11.0342 19.639 10.853 19.3643 10.8372C18.9516 10.8129 18.5351 10.8311 18.1098 10.8311V16.5183V16.5196ZM13.3792 19.9832C13.3754 19.0568 12.6539 18.3407 11.7197 18.3395C10.7981 18.3395 10.0487 19.0531 10.0538 19.9285C10.0589 20.8038 10.8222 21.5332 11.7399 21.5393C12.6412 21.5442 13.3818 20.8415 13.3792 19.982V19.9832Z" fill="#333333"/>
</svg>
