<svg width="20" height="26" viewBox="0 0 20 26" fill="none" xmlns="http://www.w3.org/2000/svg">
<path fill-rule="evenodd" clip-rule="evenodd" d="M10.1199 25C5.52004 25 1.5918 24.2841 1.5918 21.4175C1.5918 18.5508 5.49512 15.9043 10.1199 15.9043C14.72 15.9043 18.6482 18.5251 18.6482 21.3919C18.6482 24.2574 14.7449 25 10.1199 25Z" stroke="#333333" stroke-width="1.29369" stroke-linecap="round" stroke-linejoin="round"/>
<path fill-rule="evenodd" clip-rule="evenodd" d="M10.11 11.9318C13.1288 11.9318 15.5754 9.48514 15.5754 6.46647C15.5754 3.44779 13.1288 1 10.11 1C7.09137 1 4.64359 3.44779 4.64359 6.46647C4.63339 9.47495 7.06306 11.9216 10.0715 11.9318C10.0851 11.9318 10.0975 11.9318 10.11 11.9318Z" stroke="#333333" stroke-width="1.29369" stroke-linecap="round" stroke-linejoin="round"/>
</svg>
